<svg xmlns="http://www.w3.org/2000/svg" width="22" height="23" fill="none" viewBox="0 0 22 23"><path fill="#fff" d="M20.3727 15.1676L15.3814 12.931L15.3676 12.9246C15.1085 12.8138 14.8259 12.7693 14.5452 12.7952C14.2646 12.8211 13.9948 12.9166 13.7604 13.073C13.7328 13.0912 13.7063 13.111 13.6809 13.1323L11.1021 15.3307C9.46839 14.5372 7.78168 12.8632 6.98812 11.2506L9.18974 8.63264C9.21093 8.60615 9.23106 8.57966 9.25013 8.55106C9.40315 8.31723 9.49599 8.0492 9.52039 7.77082C9.54479 7.49244 9.49999 7.21235 9.38999 6.95546V6.94275L7.14704 1.94301C7.00162 1.60743 6.75156 1.32789 6.4342 1.1461C6.11684 0.964318 5.7492 0.890046 5.38617 0.934374C3.95052 1.12329 2.63274 1.82834 1.67894 2.91784C0.725132 4.00735 0.200539 5.4068 0.203135 6.85481C0.203135 15.2672 7.04745 22.1115 15.4598 22.1115C16.9078 22.1141 18.3073 21.5895 19.3968 20.6357C20.4863 19.6819 21.1913 18.3641 21.3803 16.9285C21.4247 16.5655 21.3505 16.198 21.169 15.8807C20.9874 15.5633 20.7081 15.3132 20.3727 15.1676ZM15.4598 20.4163C11.8643 20.4124 8.41715 18.9823 5.87473 16.4399C3.3323 13.8975 1.90225 10.4503 1.89832 6.85481C1.89434 5.82021 2.26708 4.81952 2.94694 4.03964C3.6268 3.25976 4.56729 2.75402 5.59277 2.61685C5.59235 2.62107 5.59235 2.62533 5.59277 2.62956L7.8177 7.60917L5.62773 10.2304C5.6055 10.2559 5.58531 10.2832 5.56734 10.3119C5.4079 10.5566 5.31437 10.8383 5.29581 11.1297C5.27725 11.4211 5.33428 11.7124 5.46139 11.9753C6.42129 13.9386 8.39936 15.9018 10.3838 16.8606C10.6486 16.9866 10.9416 17.0416 11.2341 17.0205C11.5266 16.9993 11.8085 16.9026 12.0525 16.7399C12.0797 16.7215 12.1059 16.7017 12.1309 16.6805L14.7065 14.4832L19.6861 16.7134C19.6861 16.7134 19.6946 16.7134 19.6978 16.7134C19.5623 17.7403 19.0573 18.6827 18.2773 19.3642C17.4972 20.0458 16.4956 20.4198 15.4598 20.4163Z"/></svg>