<svg width="24" height="24" viewBox="0 0 24 24" fill="none" xmlns="http://www.w3.org/2000/svg">
  <path d="M6.00195 17.9986C7.44017 17.785 8.75367 17.0615 9.70277 15.9601C10.6519 14.8586 11.1733 13.4526 11.172 11.9986C11.1792 10.1734 11.8413 8.41149 13.0378 7.03325C14.2344 5.65502 15.8859 4.75205 17.692 4.48859L20.282 4.11859C20.212 4.03859 20.152 3.95859 20.072 3.87859C16.812 0.618586 10.552 1.59859 6.07195 6.05859C2.28195 9.89859 1.00195 14.9986 2.76195 18.4586L6.00195 17.9986Z" fill="#753F27" />
  <path d="M12.7278 12.0037C12.7213 13.8286 12.0609 15.5906 10.8666 16.9703C9.67218 18.35 8.02288 19.2559 6.21781 19.5238L3.75781 19.8738L3.90781 20.0438C7.16781 23.3038 13.4278 22.3338 17.9078 17.8738C21.6778 14.1138 22.9978 9.00375 21.2478 5.59375L17.9078 6.07375C16.4788 6.28134 15.1711 6.99322 14.2211 8.08076C13.2711 9.16831 12.7415 10.5598 12.7278 12.0037Z" fill="#753F27" />
</svg>
