<svg width="23" height="18" viewBox="0 0 23 18" fill="none" xmlns="http://www.w3.org/2000/svg">
  <path d="M21.1898 0.773438H0.847593C0.622797 0.773438 0.407209 0.862737 0.248254 1.02169C0.0892997 1.18065 0 1.39623 0 1.62103V16.0301C0 16.4797 0.178599 16.9109 0.496509 17.2288C0.814418 17.5467 1.24559 17.7253 1.69519 17.7253H20.3422C20.7918 17.7253 21.223 17.5467 21.5409 17.2288C21.8588 16.9109 22.0374 16.4797 22.0374 16.0301V1.62103C22.0374 1.39623 21.9481 1.18065 21.7892 1.02169C21.6302 0.862737 21.4146 0.773438 21.1898 0.773438ZM19.0105 2.46862L11.0187 9.79501L3.02697 2.46862H19.0105ZM20.3422 16.0301H1.69519V3.54825L10.4455 11.5697C10.6019 11.7132 10.8064 11.7929 11.0187 11.7929C11.231 11.7929 11.4355 11.7132 11.5919 11.5697L20.3422 3.54825V16.0301Z" fill="white" />
</svg>
