<svg xmlns="http://www.w3.org/2000/svg" width="23" height="23" fill="none" viewBox="0 0 23 23"><g clip-path="url(#clip0_1055_41)"><path fill="#fff" d="M11.375 6.125C10.3366 6.125 9.32161 6.43291 8.45826 7.00978C7.5949 7.58666 6.92199 8.4066 6.52463 9.36591C6.12727 10.3252 6.02331 11.3808 6.22588 12.3992C6.42845 13.4176 6.92846 14.3531 7.66269 15.0873C8.39692 15.8215 9.33238 16.3216 10.3508 16.5241C11.3692 16.7267 12.4248 16.6227 13.3841 16.2254C14.3434 15.828 15.1633 15.1551 15.7402 14.2917C16.3171 13.4284 16.625 12.4134 16.625 11.375C16.6236 9.98306 16.07 8.64854 15.0857 7.66429C14.1015 6.68004 12.7669 6.12645 11.375 6.125ZM11.375 14.875C10.6828 14.875 10.0061 14.6697 9.4305 14.2851C8.85493 13.9006 8.40633 13.3539 8.14142 12.7144C7.87651 12.0749 7.8072 11.3711 7.94225 10.6922C8.0773 10.0133 8.41064 9.38961 8.90013 8.90013C9.38961 8.41064 10.0133 8.0773 10.6922 7.94225C11.3711 7.8072 12.0749 7.87651 12.7144 8.14142C13.3539 8.40633 13.9006 8.85493 14.2851 9.4305C14.6697 10.0061 14.875 10.6828 14.875 11.375C14.875 12.3033 14.5062 13.1935 13.8499 13.8499C13.1935 14.5062 12.3033 14.875 11.375 14.875ZM16.625 0H6.125C4.50108 0.00173712 2.94417 0.647606 1.79589 1.79589C0.647606 2.94417 0.00173712 4.50108 0 6.125V16.625C0.00173712 18.2489 0.647606 19.8058 1.79589 20.9541C2.94417 22.1024 4.50108 22.7483 6.125 22.75H16.625C18.2489 22.7483 19.8058 22.1024 20.9541 20.9541C22.1024 19.8058 22.7483 18.2489 22.75 16.625V6.125C22.7483 4.50108 22.1024 2.94417 20.9541 1.79589C19.8058 0.647606 18.2489 0.00173712 16.625 0ZM21 16.625C21 17.7853 20.5391 18.8981 19.7186 19.7186C18.8981 20.5391 17.7853 21 16.625 21H6.125C4.96468 21 3.85188 20.5391 3.03141 19.7186C2.21094 18.8981 1.75 17.7853 1.75 16.625V6.125C1.75 4.96468 2.21094 3.85188 3.03141 3.03141C3.85188 2.21094 4.96468 1.75 6.125 1.75H16.625C17.7853 1.75 18.8981 2.21094 19.7186 3.03141C20.5391 3.85188 21 4.96468 21 6.125V16.625ZM18.375 5.6875C18.375 5.94709 18.298 6.20085 18.1538 6.41669C18.0096 6.63253 17.8046 6.80075 17.5648 6.90009C17.3249 6.99943 17.061 7.02542 16.8064 6.97478C16.5518 6.92414 16.318 6.79913 16.1344 6.61558C15.9509 6.43202 15.8259 6.19816 15.7752 5.94356C15.7246 5.68896 15.7506 5.42506 15.8499 5.18523C15.9492 4.9454 16.1175 4.74042 16.3333 4.5962C16.5492 4.45198 16.8029 4.375 17.0625 4.375C17.4106 4.375 17.7444 4.51328 17.9906 4.75942C18.2367 5.00556 18.375 5.3394 18.375 5.6875Z"/></g><defs><clipPath id="clip0_1055_41"><rect width="22.75" height="22.75" fill="#fff"/></clipPath></defs></svg>