<svg width="20" height="25" viewBox="0 0 20 25" fill="none" xmlns="http://www.w3.org/2000/svg">
  <path d="M10.0267 5.62462C9.18846 5.62462 8.36909 5.87317 7.67216 6.33885C6.97523 6.80452 6.43204 7.4664 6.11128 8.24079C5.79052 9.01518 5.70659 9.86729 5.87012 10.6894C6.03364 11.5115 6.43727 12.2666 7.02996 12.8593C7.62265 13.452 8.37778 13.8556 9.19986 14.0191C10.0219 14.1826 10.8741 14.0987 11.6485 13.778C12.4228 13.4572 13.0847 12.914 13.5504 12.2171C14.0161 11.5201 14.2646 10.7008 14.2646 9.86259C14.2646 8.73861 13.8181 7.66067 13.0233 6.86589C12.2286 6.07112 11.1506 5.62462 10.0267 5.62462ZM10.0267 12.4054C9.52374 12.4054 9.03212 12.2562 8.61396 11.9768C8.1958 11.6974 7.86989 11.3003 7.67743 10.8357C7.48497 10.371 7.43462 9.85977 7.53273 9.36652C7.63084 8.87327 7.87302 8.42018 8.22863 8.06457C8.58425 7.70896 9.03733 7.46678 9.53058 7.36867C10.0238 7.27055 10.5351 7.32091 10.9997 7.51337C11.4644 7.70582 11.8615 8.03174 12.1409 8.44989C12.4203 8.86805 12.5694 9.35967 12.5694 9.86259C12.5694 10.537 12.3015 11.1837 11.8247 11.6606C11.3478 12.1375 10.701 12.4054 10.0267 12.4054ZM10.0267 0.539062C7.55476 0.541867 5.18491 1.52506 3.43702 3.27296C1.68913 5.02085 0.705929 7.3907 0.703125 9.86259C0.703125 13.1894 2.24045 16.7154 5.15299 20.0602C6.46169 21.5716 7.93463 22.9326 9.54458 24.118C9.6871 24.2179 9.85688 24.2714 10.0309 24.2714C10.2049 24.2714 10.3747 24.2179 10.5172 24.118C12.1242 22.9321 13.5943 21.5711 14.9003 20.0602C17.8086 16.7154 19.3502 13.1894 19.3502 9.86259C19.3474 7.3907 18.3642 5.02085 16.6163 3.27296C14.8684 1.52506 12.4985 0.541867 10.0267 0.539062ZM10.0267 22.3646C8.27531 20.9872 2.39831 15.9282 2.39831 9.86259C2.39831 7.83943 3.20201 5.89913 4.6326 4.46854C6.06319 3.03795 8.00349 2.23425 10.0267 2.23425C12.0498 2.23425 13.9901 3.03795 15.4207 4.46854C16.8513 5.89913 17.655 7.83943 17.655 9.86259C17.655 15.9261 11.778 20.9872 10.0267 22.3646Z" fill="white" />
</svg>
