<svg xmlns="http://www.w3.org/2000/svg" width="20" height="20" fill="none" viewBox="0 0 20 20"><path fill="#fff" d="M4.16717 0H3.4375L8.41645 14.3272L8.75984 13.3656L4.16717 0Z"/><path fill="#fff" d="M5.80001 0H5.07031L9.27671 11.9233L9.62006 10.9617L5.80001 0Z"/><path fill="#fff" d="M2.44842 0H1.71875L7.59907 16.6349L7.94246 15.6734L2.44842 0Z"/><path fill="#fff" d="M0.729674 0H0L7.08216 20.0004H7.85475L14.9369 0H14.2072L7.59721 18.7984H7.33966L0.729674 0Z"/><path fill="#fff" d="M0.729674 0H0L7.08216 20.0004H7.85475L14.9369 0H14.2072L7.59721 18.7984H7.33966L0.729674 0Z"/><path fill="#fff" d="M0.729674 0H0L7.08216 20.0004H7.85475L14.9369 0H14.2072L7.59721 18.7984H7.33966L0.729674 0Z"/><path fill="#fff" d="M11.1633 20.0004H10.4766L17.5587 0H18.2884L11.1633 20.0004Z"/><path fill="#fff" d="M12.8742 20.0004H12.1875L19.2697 0H19.9993L12.8742 20.0004Z"/><path fill="#fff" d="M9.52268 20.0004H8.83594L15.9181 0H16.6478L9.52268 20.0004Z"/></svg>