<svg width="552" height="469" viewBox="0 0 552 469" fill="none" xmlns="http://www.w3.org/2000/svg">
<path d="M448.63 151.977C634.38 211.307 528.042 339.552 441.328 394.319C437.018 397.041 398.884 422.159 367.393 431.743C300.304 457.301 83.9755 506.591 0 418.508C94.4725 473.274 261.967 468.71 408.011 380.171C470.08 342.542 496.474 303.954 506.987 274.289C528.498 213.589 500.658 186.206 448.63 151.977Z" fill="url(#paint0_diamond_859_23)"/>
<path d="M236.558 318.457C223.028 350.933 221.886 371.007 245.061 406.956C218.561 351.439 249.561 324.44 328.561 320.44C386.609 312.79 397.48 287.461 400.561 226.442C385.228 262.997 370.731 278.248 319.561 282.958C275.061 282.958 256.061 292.94 236.558 318.457Z" fill="#046C3D"/>
<path d="M222.5 291.442C228.061 299.484 227.061 306.441 228.061 315.941C255.066 282.25 277.697 273.543 328.561 272.442C377.561 267.442 403.717 238.377 400.561 168.942C387.814 214.927 369.88 228.977 319.561 233.942C266.777 235.607 245.85 246.88 228.061 291.442C223.758 235.319 190.061 218.077 141.561 216.442C97.0607 214.942 73.5608 203.442 55.5608 162.442C58.0608 230.942 79.5607 254.442 145.061 254.442C182.561 254.442 216.939 283.399 222.5 291.442Z" fill="#046C3D"/>
<path d="M55.5608 106.978C53.9883 175.978 76.4902 204.978 141.561 206.478C183.237 209.706 203.978 216.209 228.061 251.478C255.066 217.787 277.697 209.079 328.561 207.978C377.561 202.978 403.717 177.412 400.561 107.978C387.814 153.963 367.493 165.978 319.561 169.478C266.777 171.143 243.492 184.478 228.061 228.978C212.492 176.978 176.492 167.478 141.561 167.478C89.992 167.478 70.9922 147.978 55.5608 106.978Z" fill="#046C3D"/>
<path d="M221 178.985C227 187.485 227.069 193.985 228.069 203.485C255.074 169.794 277.704 161.086 328.569 159.985C377.569 154.985 403.724 125.92 400.569 56.4849C387.822 102.47 369.888 116.52 319.569 121.485C272 126.179 245 135.985 228.069 178.985C223.766 122.862 190.069 105.62 141.569 103.985C97.0685 102.485 73.5686 90.9849 55.5686 49.9849C57 119.485 79.5685 141.985 145.069 141.985C182.569 141.985 215 170.485 221 178.985Z" fill="#046C3D"/>
<path d="M145.069 94C193.375 94.783 222.375 129 228.375 137.5C227.375 77.5 190.069 58.1348 141.569 56.5C97.0685 55 73.5539 41 55.5539 0C57.2136 74.5 83.375 93 145.069 94Z" fill="#046C3D"/>
<circle cx="188.875" cy="318" r="23" fill="#B41A1F"/>
<circle cx="267.875" cy="374" r="23" fill="#B41A1F"/>
<circle cx="188.875" cy="388" r="23" fill="#B41A1F"/>
<defs>
<radialGradient id="paint0_diamond_859_23" cx="0" cy="0" r="1" gradientUnits="userSpaceOnUse" gradientTransform="translate(516.176 298.477) rotate(162.241) scale(489.288 851.547)">
<stop stop-color="#ECE64D"/>
<stop offset="0.690625" stop-color="#8B8C35"/>
<stop offset="1" stop-color="#ECE64D"/>
</radialGradient>
</defs>
</svg>
