<svg width="604" height="514" viewBox="0 0 604 514" fill="none" xmlns="http://www.w3.org/2000/svg">
<path d="M253.938 139.5L258.438 146C263.815 125.038 263.097 116.955 259.462 105L257.462 101L254.962 96.5L249.962 90.5C173.937 28 143.5 51 127.962 13L126.462 9L125.462 6L123.462 0L118.462 8.5L114.962 14.5L111.962 20.5L109.462 26C91.462 76.5 154.5 81.5 173.937 90L179.937 91.5L185.937 94L193.937 97L205.438 101L216.438 105L224.438 109L231.938 114L237.438 118.5L242.938 123.5L247.438 129L249.938 133.5L253.938 139.5Z" fill="#42C17E"/>
<path d="M91.462 26L97.462 21.5C95.4679 55.5 97.462 76.5 161.968 98.5C196.967 110.437 211.535 116.056 229.468 129C252.447 148.141 256.708 164.84 260.468 197.5C289.468 140.5 345.968 139.5 391.968 123.5C410.981 116.887 428.784 106.629 454.968 74C457.713 117.705 451.168 131.374 432.968 147C417.674 161.19 400.997 167.659 354.968 178.5C324.927 185.825 311.152 189.346 294.968 195.5C284.368 198.629 275.205 205.262 254.968 222.5C251.419 207.536 247.544 199.916 241.468 189.5C230.992 172.283 222.29 164.582 201.468 154.5C171.867 145.791 153.53 142.417 128.438 124.5C107.424 109.495 93.0639 99.0077 82.9679 76.5L80.962 68.5C79.3745 57.1353 79.8862 51.6942 81.962 42.5L83.462 37C83.462 37 84.6626 33.4693 85.962 31.5C87.6348 28.9646 91.462 26 91.462 26Z" fill="#42C17E"/>
<path d="M71.4703 131.5C67.4734 107 68.4669 95.4198 71.9679 84C87.9736 161 172.474 177.03 210.474 197.5C236.816 211.69 247.438 223.5 253.968 253C281.474 166 399.474 222.5 456.474 129C460.474 169.5 439.584 195.128 386.974 216C350.247 230.41 330.974 233 293.974 244.5C273.243 250.943 261.283 260.681 252.474 280C240.992 258.706 231.678 250.501 212.473 239.5C166.437 214 131.474 215 92.4734 175C80.7646 160.338 76.2639 150.608 71.4703 131.5Z" fill="#42C17E"/>
<path d="M89.4736 230C66.5841 204.309 60.627 185.137 65.4736 143C91.5183 203.756 117.468 214.5 201.468 245C231.204 258.58 245.299 274.765 253.968 314C280 265 314 264.5 356.5 252C417.459 228.25 436.228 215.008 447.5 191.5C443 241 404.5 276 322 300.5C279 312.5 265.126 319.747 248.5 345.5C237 309.5 221.5 292.5 185 278.5C151 267 124 258.5 89.4736 230Z" fill="#42C17E"/>
<path d="M375 326.5C405.5 312 430 289 441 231.5C405.5 291.5 354.782 299.508 322 312C289.218 324.492 273.065 333.891 253 360C239.257 384.774 243.517 399.655 255 426.5C269.5 325.5 295 365.5 375 326.5Z" fill="#42C17E"/>
<path d="M233.003 383.503C233.003 350.003 184.882 350.503 183.003 381.503C181.124 412.503 233.003 417.003 233.003 383.503Z" fill="#9B1C52"/>
<path d="M319.003 421.003C319.003 387.503 270.882 388.003 269.003 419.003C267.124 450.003 319.003 454.503 319.003 421.003Z" fill="#9B1C52"/>
<path d="M227.503 450.503C227.503 417.003 179.382 417.503 177.503 448.503C175.624 479.503 227.503 484.003 227.503 450.503Z" fill="#9B1C52"/>
<path d="M491.5 166.5C695 231.5 578.5 372 483.5 432C478.779 434.982 437 462.5 402.5 473C329 501 92 555 0 458.5C103.5 518.5 287 513.5 447 416.5C515 375.275 543.916 333 555.433 300.5C579 234 548.5 204 491.5 166.5Z" fill="url(#paint0_diamond_827_43)"/>
<defs>
<radialGradient id="paint0_diamond_827_43" cx="0" cy="0" r="1" gradientUnits="userSpaceOnUse" gradientTransform="translate(565.5 327) rotate(162.241) scale(536.043 932.918)">
<stop stop-color="#C5C759"/>
<stop offset="0.690625" stop-color="#8B8C35"/>
<stop offset="1" stop-color="#C5C759"/>
</radialGradient>
</defs>
</svg>
