<svg xmlns="http://www.w3.org/2000/svg" width="597" height="631" fill="none" viewBox="0 0 597 631"><path fill="url(#paint0_diamond_827_44)" d="M478.755 151.977C664.505 211.307 558.167 339.552 471.453 394.319C467.143 397.041 429.009 422.159 397.518 431.743C330.429 457.301 114.101 506.591 30.125 418.508C124.597 473.274 292.092 468.71 438.136 380.171C500.205 342.542 526.599 303.954 537.112 274.289C558.623 213.589 530.783 186.206 478.755 151.977Z"/><path fill="#046C3D" d="M413 607.937C413 601.027 414.752 595.539 418.257 591.474C421.762 587.408 426.819 585.375 433.429 585.375C437.234 585.375 440.459 585.966 443.102 587.147C445.746 588.329 447.609 590.042 448.69 592.285C449.411 593.767 449.291 594.768 448.33 595.289L444.725 597.212C443.463 597.893 442.421 597.512 441.6 596.07C441.08 595.149 440.108 594.318 438.686 593.577C437.284 592.835 435.632 592.465 433.729 592.465C429.523 592.465 426.579 593.797 424.897 596.461C423.214 599.104 422.373 602.93 422.373 607.937C422.373 612.944 423.214 616.779 424.897 619.443C426.579 622.087 429.523 623.409 433.729 623.409C435.992 623.409 437.895 622.898 439.437 621.876C440.999 620.855 442.081 619.884 442.682 618.962C443.663 617.46 444.705 617.08 445.806 617.821L449.411 620.224C450.393 620.885 450.493 621.886 449.712 623.228C448.55 625.231 446.557 626.943 443.733 628.366C440.909 629.788 437.474 630.498 433.429 630.498C426.92 630.498 421.882 628.466 418.317 624.4C414.772 620.334 413 614.846 413 607.937ZM456.471 629.477C455.029 629.477 454.558 628.816 455.059 627.494L469.78 588.83C470.401 587.208 471.342 586.396 472.604 586.396H476.81C478.072 586.396 479.013 587.208 479.634 588.83L494.355 627.494C494.855 628.816 494.385 629.477 492.943 629.477H488.166C486.844 629.477 485.923 628.786 485.402 627.404L482.338 619.323H467.076L464.012 627.404C463.491 628.786 462.57 629.477 461.248 629.477H456.471ZM469.87 611.872H479.544L475.848 602.319C475.408 601.197 475.138 600.386 475.037 599.885C474.957 599.365 474.867 598.604 474.767 597.602H474.647C474.547 598.604 474.446 599.365 474.346 599.885C474.266 600.386 474.006 601.197 473.565 602.319L469.87 611.872ZM501.805 629.477C500.403 629.477 499.702 628.726 499.702 627.224V588.65C499.702 587.147 500.403 586.396 501.805 586.396H525.568C527.071 586.396 527.821 587.047 527.821 588.349V591.894C527.821 593.196 527.071 593.847 525.568 593.847H508.474V604.302H523.105C524.607 604.302 525.358 604.953 525.358 606.254V609.799C525.358 611.101 524.607 611.752 523.105 611.752H508.474V627.224C508.474 628.726 507.773 629.477 506.371 629.477H501.805ZM546.598 583.212C545.256 583.212 545.006 582.571 545.847 581.289L548.491 577.264C549.112 576.322 550.203 575.852 551.766 575.852H557.053C558.855 575.852 559.095 576.462 557.773 577.684L553.027 582.07C552.206 582.831 551.095 583.212 549.692 583.212H546.598ZM537.134 629.477C535.733 629.477 535.032 628.726 535.032 627.224V588.65C535.032 587.147 535.733 586.396 537.134 586.396H562.911C564.413 586.396 565.164 587.047 565.164 588.349V591.894C565.164 593.196 564.413 593.847 562.911 593.847H543.804V603.4H561.318C562.821 603.4 563.572 604.051 563.572 605.353V608.898C563.572 610.2 562.821 610.851 561.318 610.851H543.804V622.027H563.873C565.374 622.027 566.126 622.677 566.126 623.979V627.524C566.126 628.826 565.374 629.477 563.873 629.477H537.134Z"/><path fill="#fff" d="M596.5 554.055L589.198 563.183H544.472L538.995 554.055V514.349L548.579 507.503H590.567L596.5 514.349V554.055ZM552.23 518.913L550.405 521.651V548.578L552.23 551.317H584.527L586.916 548.578V521.195L584.634 518.913H552.23Z"/><path fill="#fff" d="M260.142 554.055L252.839 563.183H208.113L202.637 554.055V514.349L212.221 507.503H254.208L260.142 514.349V554.055ZM215.872 518.913L214.046 521.651V548.578L215.872 551.317H248.168L250.557 548.578V521.195L248.275 518.913H215.872Z"/><path fill="#fff" d="M131.896 554.055L124.594 563.183H79.868L74.3914 554.055V514.349L83.9755 507.503H125.963L131.896 514.349V554.055ZM87.6266 518.913L85.8011 521.651V548.578L87.6266 551.317H119.923L122.312 548.578V521.195L120.03 518.913H87.6266Z"/><path fill="#fff" d="M0 507.503V565.008H10.4969L13.2353 561.357V523.02H15.9736L41.5314 564.095H62.5252L65.2636 561.357V509.329L64.3508 507.503H54.7666L53.3975 509.329V552.229L23.7322 507.503H0Z"/><path fill="#fff" d="M149.239 507.503H136.46L161.105 563.183H173.428L199.898 507.503H187.119L168.407 548.578H166.582L149.239 507.503Z"/><path fill="#fff" d="M295.283 520.282V507.503H346.399V520.282H329.513L328.143 522.108V561.357L326.318 563.183H315.365L314.452 561.357V522.108L312.626 520.282H295.283Z"/><path fill="#fff" d="M401.166 507.96V519.826H368.306L366.48 521.195V528.497L368.306 529.866H396.602L398.427 531.235V538.538L396.602 540.363H368.306L366.48 541.732V550.404L368.306 551.773H400.253V563.639H353.701L351.876 560.444V510.242L353.701 507.96H401.166Z"/><path fill="#fff" d="M408.011 561.814L409.837 563.639H418.052L420.334 561.814V523.933L439.959 563.639H445.435L464.147 523.933V561.814L465.973 563.639H474.188L476.013 561.814V509.329L474.188 507.047H456.845L441.784 538.994L428.549 507.047H409.837L408.011 509.329V561.814Z"/><path fill="#fff" d="M481.49 561.357L483.316 563.183H492.443L494.269 561.357V523.02L496.094 521.651H517.088L520.74 524.39V533.061L517.088 534.887H501.115V538.081L507.048 543.558H525.76L532.149 538.081V515.718L525.76 507.503H483.316L481.49 509.785V561.357Z"/><path fill="#046C3D" d="M266.683 318.457C253.153 350.933 252.011 371.007 275.186 406.956C248.686 351.439 279.686 324.44 358.686 320.44C416.734 312.79 427.605 287.461 430.686 226.442C415.353 262.997 400.856 278.248 349.686 282.958C305.186 282.958 286.186 292.94 266.683 318.457Z"/><path fill="#046C3D" d="M252.625 291.442C258.186 299.484 257.186 306.441 258.186 315.941C285.191 282.25 307.822 273.543 358.686 272.442C407.686 267.442 433.842 238.377 430.686 168.942C417.939 214.927 400.005 228.977 349.686 233.942C296.902 235.607 275.975 246.88 258.186 291.442C253.883 235.319 220.186 218.077 171.686 216.442C127.186 214.942 103.686 203.442 85.6858 162.442C88.1858 230.942 109.686 254.442 175.186 254.442C212.686 254.442 247.064 283.399 252.625 291.442Z"/><path fill="#046C3D" d="M85.6858 106.978C84.1133 175.978 106.615 204.978 171.686 206.478C213.362 209.706 234.103 216.209 258.186 251.478C285.191 217.787 307.822 209.079 358.686 207.978C407.686 202.978 433.842 177.412 430.686 107.978C417.939 153.963 397.618 165.978 349.686 169.478C296.902 171.143 273.617 184.478 258.186 228.978C242.617 176.978 206.617 167.478 171.686 167.478C120.117 167.478 101.117 147.978 85.6858 106.978Z"/><path fill="#046C3D" d="M251.125 178.985C257.125 187.485 257.194 193.985 258.194 203.485C285.199 169.794 307.829 161.086 358.694 159.985C407.694 154.985 433.849 125.92 430.694 56.4849C417.947 102.47 400.013 116.52 349.694 121.485C302.125 126.179 275.125 135.985 258.194 178.985C253.891 122.862 220.194 105.62 171.694 103.985C127.194 102.485 103.694 90.9849 85.6936 49.9849C87.125 119.485 109.694 141.985 175.194 141.985C212.694 141.985 245.125 170.485 251.125 178.985Z"/><path fill="#046C3D" d="M175.194 94C223.5 94.783 252.5 129 258.5 137.5C257.5 77.5 220.194 58.1348 171.694 56.5C127.194 55 103.679 41 85.6789 0C87.3386 74.5 113.5 93 175.194 94Z"/><circle cx="219" cy="318" r="23" fill="#B41A1F"/><circle cx="298" cy="374" r="23" fill="#B41A1F"/><circle cx="219" cy="388" r="23" fill="#B41A1F"/><defs><radialGradient id="paint0_diamond_827_44" cx="0" cy="0" r="1" gradientTransform="translate(546.301 298.477) rotate(162.241) scale(489.288 851.547)" gradientUnits="userSpaceOnUse"><stop stop-color="#ECE64D"/><stop offset=".691" stop-color="#8B8C35"/><stop offset="1" stop-color="#ECE64D"/></radialGradient></defs></svg>