<svg width="654" height="698" viewBox="0 0 654 698" fill="none" xmlns="http://www.w3.org/2000/svg">
<path d="M286.938 139.5L291.438 146C296.815 125.038 296.097 116.955 292.462 105L290.462 101L287.962 96.5L282.962 90.5C206.937 28 176.5 51 160.962 13L159.462 9L158.462 6L156.462 0L151.462 8.5L147.962 14.5L144.962 20.5L142.462 26C124.462 76.5 187.5 81.5 206.937 90L212.937 91.5L218.937 94L226.937 97L238.438 101L249.438 105L257.438 109L264.938 114L270.438 118.5L275.938 123.5L280.438 129L282.938 133.5L286.938 139.5Z" fill="#42C17E"/>
<path d="M124.462 26L130.462 21.5C128.468 55.5 130.462 76.5 194.968 98.5C229.967 110.437 244.535 116.056 262.468 129C285.447 148.141 289.708 164.84 293.468 197.5C322.468 140.5 378.968 139.5 424.968 123.5C443.981 116.887 461.784 106.629 487.968 74C490.713 117.705 484.168 131.374 465.968 147C450.674 161.19 433.997 167.659 387.968 178.5C357.927 185.825 344.152 189.346 327.968 195.5C317.368 198.629 308.205 205.262 287.968 222.5C284.419 207.536 280.544 199.916 274.468 189.5C263.992 172.283 255.29 164.582 234.468 154.5C204.867 145.791 186.53 142.417 161.438 124.5C140.424 109.495 126.064 99.0077 115.968 76.5L113.962 68.5C112.375 57.1353 112.886 51.6942 114.962 42.5L116.462 37C116.462 37 117.663 33.4693 118.962 31.5C120.635 28.9646 124.462 26 124.462 26Z" fill="#42C17E"/>
<path d="M104.47 131.5C100.473 107 101.467 95.4198 104.968 84C120.974 161 205.474 177.03 243.474 197.5C269.816 211.69 280.438 223.5 286.968 253C314.474 166 432.474 222.5 489.474 129C493.474 169.5 472.584 195.128 419.974 216C383.247 230.41 363.974 233 326.974 244.5C306.243 250.943 294.283 260.681 285.474 280C273.992 258.706 264.678 250.501 245.473 239.5C199.437 214 164.474 215 125.473 175C113.765 160.338 109.264 150.608 104.47 131.5Z" fill="#42C17E"/>
<path d="M122.474 230C99.5841 204.309 93.627 185.137 98.4736 143C124.518 203.756 150.468 214.5 234.468 245C264.204 258.58 278.299 274.765 286.968 314C313 265 347 264.5 389.5 252C450.459 228.25 469.228 215.008 480.5 191.5C476 241 437.5 276 355 300.5C312 312.5 298.126 319.747 281.5 345.5C270 309.5 254.5 292.5 218 278.5C184 267 157 258.5 122.474 230Z" fill="#42C17E"/>
<path d="M408 326.5C438.5 312 463 289 474 231.5C438.5 291.5 387.782 299.508 355 312C322.218 324.492 306.065 333.891 286 360C272.257 384.774 276.517 399.655 288 426.5C302.5 325.5 328 365.5 408 326.5Z" fill="#42C17E"/>
<path d="M266.003 383.503C266.003 350.003 217.882 350.503 216.003 381.503C214.124 412.503 266.003 417.003 266.003 383.503Z" fill="#9B1C52"/>
<path d="M352.003 421.003C352.003 387.503 303.882 388.003 302.003 419.003C300.124 450.003 352.003 454.503 352.003 421.003Z" fill="#9B1C52"/>
<path d="M260.503 450.503C260.503 417.003 212.382 417.503 210.503 448.503C208.624 479.503 260.503 484.003 260.503 450.503Z" fill="#9B1C52"/>
<path d="M524.5 166.5C728 231.5 611.5 372 516.5 432C511.779 434.982 470 462.5 435.5 473C362 501 125 555 33 458.5C136.5 518.5 320 513.5 480 416.5C548 375.275 576.916 333 588.433 300.5C612 234 581.5 204 524.5 166.5Z" fill="url(#paint0_diamond_827_44)"/>
<path d="M485.881 695.361C483.305 696.787 479.28 697.5 473.806 697.5C465.94 697.5 459.661 695.108 454.969 690.324C450.323 685.448 448 679.031 448 671.073C448 663.207 450.369 656.836 455.107 651.96C459.845 647.084 466.078 644.646 473.806 644.646C479.418 644.646 483.443 645.267 485.881 646.509L485.329 653.547C482.201 652.305 478.36 651.684 473.806 651.684C468.24 651.684 463.801 653.478 460.489 657.066C457.177 660.654 455.521 665.323 455.521 671.073C455.521 677.053 457.131 681.745 460.351 685.149C463.617 688.691 468.102 690.462 473.806 690.462C478.636 690.462 482.477 689.703 485.329 688.185L485.881 695.361ZM527.596 676.593L519.247 655.341L510.829 676.593H527.596ZM543.604 696.879H535.6L530.356 683.7H508L502.687 696.879H494.752L515.728 645.405H523.249L543.604 696.879ZM575.624 652.581H558.305V666.795H574.658V673.902H558.305V696.603H550.784V645.543H575.624V652.581ZM612.497 693.636H584.966V644.37H612.497V649.821H591.176V665.208H611.255V670.59H591.176V688.185H612.497V693.636ZM609.53 629.19C609.116 629.834 608.518 630.616 607.736 631.536C606.954 632.456 606.08 633.422 605.114 634.434C604.194 635.4 603.251 636.343 602.285 637.263C601.365 638.137 600.491 638.896 599.663 639.54H595.661V638.712C596.351 637.838 597.087 636.803 597.869 635.607C598.697 634.411 599.502 633.192 600.284 631.95C601.066 630.662 601.71 629.512 602.216 628.5H609.53V629.19Z" fill="#42C17E"/>
<path d="M653.5 607L645.5 617H596.5L590.5 607V563.5L601 556H647L653.5 563.5V607ZM605 568.5L603 571.5V601L605 604H640.383L643 601V571L640.5 568.5H605Z" fill="white"/>
<path d="M285 607L277 617H228L222 607V563.5L232.5 556H278.5L285 563.5V607ZM236.5 568.5L234.5 571.5V601L236.5 604H271.883L274.5 601V571L272 568.5H236.5Z" fill="white"/>
<path d="M144.5 607L136.5 617H87.5L81.5 607V563.5L92 556H138L144.5 563.5V607ZM96 568.5L94 571.5V601L96 604H131.383L134 601V571L131.5 568.5H96Z" fill="white"/>
<path d="M0 556V619H11.5L14.5 615V573H17.5L45.5 618H68.5L71.5 615V558L70.5 556H60L58.5 558V605L26 556H0Z" fill="white"/>
<path d="M163.5 556H149.5L176.5 617H190L219 556H205L184.5 601H182.5L163.5 556Z" fill="white"/>
<path d="M323.5 570V556H379.5V570H361L359.5 572V615L357.5 617H345.5L344.5 615V572L342.5 570H323.5Z" fill="white"/>
<path d="M439.5 556.5V569.5H403.5L401.5 571V579L403.5 580.5H434.5L436.5 582V590L434.5 592H403.5L401.5 593.5V603L403.5 604.5H438.5V617.5H387.5L385.5 614V559L387.5 556.5H439.5Z" fill="white"/>
<path d="M447 615.5L449 617.5H458L460.5 615.5V574L482 617.5H488L508.5 574V615.5L510.5 617.5H519.5L521.5 615.5V558L519.5 555.5H500.5L484 590.5L469.5 555.5H449L447 558V615.5Z" fill="white"/>
<path d="M527.5 615L529.5 617H539.5L541.5 615V573L543.5 571.5H566.5L570.5 574.5V584L566.5 586H549V589.5L555.5 595.5H576L583 589.5V565L576 556H529.5L527.5 558.5V615Z" fill="white"/>
<defs>
<radialGradient id="paint0_diamond_827_44" cx="0" cy="0" r="1" gradientUnits="userSpaceOnUse" gradientTransform="translate(598.5 327) rotate(162.241) scale(536.043 932.918)">
<stop stop-color="#C5C759"/>
<stop offset="0.690625" stop-color="#8B8C35"/>
<stop offset="1" stop-color="#C5C759"/>
</radialGradient>
</defs>
</svg>
